<svg width="11" height="11" viewBox="0 0 11 11" fill="none" xmlns="http://www.w3.org/2000/svg">
<path fill-rule="evenodd" clip-rule="evenodd" d="M2.20573 4.75521C3.1224 6.53126 4.46874 7.8776 6.24479 8.79427L7.59115 7.44792C7.78212 7.25694 7.99219 7.2092 8.22135 7.30469C8.90886 7.53386 9.63454 7.64844 10.3984 7.64844C10.5703 7.64844 10.7135 7.70573 10.8281 7.82031C10.9427 7.9349 11 8.07812 11 8.25V10.3984C11 10.5703 10.9427 10.7135 10.8281 10.8281C10.7135 10.9427 10.5703 11 10.3984 11C7.53384 11 5.08465 9.98308 3.05078 7.94922C1.01692 5.91535 0 3.46616 0 0.601562C0 0.429688 0.0572911 0.286458 0.171875 0.171875C0.286459 0.0572917 0.429687 0 0.601562 0H2.75C2.92188 0 3.0651 0.0572917 3.17969 0.171875C3.29427 0.286458 3.35156 0.429688 3.35156 0.601562C3.35156 1.36546 3.46614 2.09114 3.69531 2.77865C3.7717 3.02691 3.72396 3.23698 3.55208 3.40885L2.20573 4.75521Z" fill="#C09440"/>
</svg>
