<svg width="16" height="11" viewBox="0 0 16 11" fill="none" xmlns="http://www.w3.org/2000/svg">
<path fill-rule="evenodd" clip-rule="evenodd" d="M15.3615 0H0V11H16V0H15.3615ZM14.723 0.6875L8.52582 7.31985C8.37559 7.48162 8.20031 7.5625 8 7.5625C7.79969 7.5625 7.62441 7.48162 7.47418 7.31985L1.277 0.6875H14.723ZM0.638498 0.930147L4.80751 5.41912L0.638498 9.90809V0.930147ZM1.12676 10.3125L5.25822 5.90441L7.02347 7.80515C7.14867 7.96691 7.2989 8.0815 7.47418 8.1489C7.64945 8.2163 7.82473 8.25 8 8.25C8.17527 8.25 8.35055 8.2163 8.52582 8.1489C8.7011 8.0815 8.85133 7.96691 8.97653 7.80515L10.7418 5.90441L14.8732 10.3125H1.12676ZM15.3615 9.90809L11.1925 5.41912L15.3615 0.930147V9.90809Z" fill="#C09440"/>
</svg>
